<svg class="icon-lighting" width="15" height="16" viewBox="0 0 15 16" fill="none" xmlns="http://www.w3.org/2000/svg">
<path d="M14.2361 6.03121C14.1625 5.90632 14.0497 5.80129 13.9105 5.72777C13.7712 5.65424 13.6108 5.6151 13.4471 5.61468H9.01412V1.07066C9.02364 0.904567 8.96889 0.740412 8.85833 0.603538C8.74777 0.466664 8.58754 0.36468 8.40238 0.313327C8.22437 0.2633 8.03239 0.262738 7.85399 0.311721C7.67559 0.360705 7.51994 0.456714 7.4094 0.585968L0.316686 8.91666C0.22782 9.02637 0.174458 9.15419 0.162004 9.28718C0.149549 9.42017 0.178442 9.55361 0.245759 9.674C0.307751 9.81164 0.415442 9.93083 0.555613 10.0169C0.695784 10.103 0.862335 10.1523 1.03482 10.1587H5.46777V14.7027C5.46791 14.8624 5.52714 15.018 5.63701 15.1472C5.74688 15.2764 5.90176 15.3727 6.07951 15.4222C6.16859 15.4458 6.26112 15.4585 6.35436 15.46C6.49425 15.4604 6.63224 15.4324 6.75705 15.3784C6.88187 15.3245 6.98996 15.246 7.07249 15.1495L14.1652 6.81884C14.2607 6.70584 14.3179 6.57252 14.3304 6.43355C14.3429 6.29458 14.3103 6.15536 14.2361 6.03121Z" fill="#0EAA7E"/>
</svg>
