<svg width="13" height="14" viewBox="0 0 13 14" fill="none" xmlns="http://www.w3.org/2000/svg">
<circle cx="6.5" cy="7" r="6.5" fill="#878787"/>
<path d="M7.56185 7.41059C7.5548 7.5156 7.46756 7.59718 7.3623 7.59718H5.67344C5.56819 7.59718 5.48095 7.5156 5.47389 7.41059L5.17584 2.97415C5.16808 2.85868 5.25966 2.76074 5.37539 2.76074H7.66035C7.77609 2.76074 7.86766 2.85868 7.85991 2.97415L7.56185 7.41059ZM5.08594 9.9541C5.08594 9.57902 5.21943 9.27237 5.48643 9.03414C5.75846 8.79085 6.09597 8.6692 6.49898 8.6692C6.90199 8.6692 7.23699 8.79085 7.50398 9.03414C7.77601 9.27237 7.91202 9.57902 7.91202 9.9541C7.91202 10.3292 7.77601 10.6384 7.50398 10.8817C7.23699 11.1199 6.90199 11.239 6.49898 11.239C6.09597 11.239 5.75846 11.1199 5.48643 10.8817C5.21943 10.6384 5.08594 10.3292 5.08594 9.9541Z" fill="white"/>
</svg>
