<svg class="icon-setting" width="14" height="14" viewBox="0 0 14 14" fill="none" xmlns="http://www.w3.org/2000/svg">
<path d="M12.3549 7.68251C12.3819 7.46376 12.3999 7.23626 12.3999 7.00001C12.3999 6.76376 12.3819 6.53626 12.3459 6.31751L13.8669 5.16251C13.9321 5.10937 13.9767 5.03607 13.993 4.95486C14.0094 4.87365 13.9967 4.78943 13.9569 4.71626L12.5169 2.29252C12.4269 2.13502 12.2379 2.08252 12.0759 2.13502L10.2849 2.83502C9.91304 2.5559 9.50443 2.32637 9.06997 2.15252L8.79997 0.297522C8.78695 0.214063 8.74335 0.137991 8.6772 0.083321C8.61104 0.0286512 8.52679 -0.000931843 8.43998 2.2384e-05H5.56002C5.47419 -0.000824521 5.39102 0.0290064 5.32631 0.0838502C5.26161 0.138694 5.21987 0.214731 5.20903 0.297522L4.93903 2.15252C4.5053 2.32782 4.09688 2.55724 3.72405 2.83502L1.93308 2.13502C1.85244 2.10479 1.76323 2.1041 1.6821 2.13308C1.60097 2.16205 1.53344 2.21872 1.49209 2.29252L0.0521154 4.71626C0.00758167 4.78827 -0.00786866 4.87378 0.0087595 4.95623C0.0253877 5.03868 0.0729098 5.11219 0.142114 5.16251L1.66309 6.31751C1.62709 6.53626 1.60009 6.77251 1.60009 7.00001C1.60009 7.22751 1.61809 7.46376 1.65409 7.68251L0.133114 8.83751C0.067862 8.89065 0.0233305 8.96395 0.00695172 9.04516C-0.00942705 9.12637 0.00333767 9.21059 0.0431155 9.28376L1.48309 11.7075C1.57309 11.865 1.76209 11.9175 1.92408 11.865L3.71505 11.165C4.08696 11.4441 4.49557 11.6737 4.93003 11.8475L5.20003 13.7025C5.23603 13.8775 5.38003 14 5.56002 14H8.43998C8.61997 14 8.77297 13.8775 8.79097 13.7025L9.06097 11.8475C9.4947 11.6722 9.90312 11.4428 10.2759 11.165L12.0669 11.865C12.2289 11.9263 12.4179 11.865 12.5079 11.7075L13.9479 9.28376C13.9924 9.21175 14.0079 9.12624 13.9912 9.04379C13.9746 8.96134 13.9271 8.88783 13.8579 8.83751L12.3549 7.68251ZM7 9.62501C5.51502 9.62501 4.30004 8.44376 4.30004 7.00001C4.30004 5.55626 5.51502 4.37501 7 4.37501C8.48498 4.37501 9.69996 5.55626 9.69996 7.00001C9.69996 8.44376 8.48498 9.62501 7 9.62501Z" fill="#CBCBCB"/>
</svg>
