<svg width="16" height="16" viewBox="0 0 16 16" fill="none" xmlns="http://www.w3.org/2000/svg">
<path d="M8.01828 16C12.2009 16 15.6312 12.8044 16 8.7273L9.47606 8.7273L9.47606 10.9091C9.47606 11.2029 9.29827 11.4683 9.02639 11.5811C8.75371 11.6937 8.44032 11.6313 8.23184 11.4233L5.31616 8.51409C5.03106 8.22978 5.03106 7.77022 5.31616 7.48577L8.23184 4.57672C8.44032 4.36871 8.75371 4.30612 9.02639 4.41891C9.29828 4.53157 9.47606 4.79711 9.47606 5.09088L9.47606 7.2727L16 7.2727C15.6312 3.19563 12.2009 -3.3213e-07 8.01829 -6.97784e-07C3.58998 -1.08492e-06 -8.21717e-07 3.58182 -1.20796e-06 7.99993C-1.59422e-06 12.4182 3.58997 16 8.01828 16V16Z" fill="#CDCDCD"/>
</svg>
