<svg width="25" height="25" viewBox="0 0 25 25" fill="none" xmlns="http://www.w3.org/2000/svg">
<path d="M12.9415 0.118652C6.67531 0.118652 1.53613 4.91679 0.983643 11.0384H10.7575V7.76244C10.7575 7.32135 11.0238 6.92286 11.4312 6.7535C11.8397 6.58435 12.3092 6.67812 12.6215 6.99044L16.9897 11.3585C17.4168 11.7854 17.4168 12.4754 16.9897 12.9025L12.6215 17.2703C12.3092 17.5827 11.8397 17.6766 11.4312 17.5073C11.0238 17.3381 10.7575 16.9394 10.7575 16.4983V13.2224H0.983643C1.53613 19.344 6.67531 24.1421 12.9415 24.1421C19.5757 24.1421 24.9541 18.7641 24.9541 12.1305C24.9541 5.49664 19.5757 0.118652 12.9415 0.118652V0.118652Z" fill="white"/>
</svg>
