<svg width="27" height="26" viewBox="0 0 27 26" fill="none" xmlns="http://www.w3.org/2000/svg">
<path d="M23.1352 0.542236H2.8919C1.30136 0.542236 0 1.79346 0 3.32273V22.7862C0 24.3169 1.30136 25.5667 2.8919 25.5667H13.0135V15.835H10.1217V12.3941H13.0135V9.5441C13.0135 6.5356 14.766 4.42242 18.459 4.42242L21.066 4.4252V8.0468H19.3352C17.898 8.0468 17.3514 9.08392 17.3514 10.046V12.3955H21.0646L20.2433 15.835H17.3514V25.5667H23.1352C24.7257 25.5667 26.0271 24.3169 26.0271 22.7862V3.32273C26.0271 1.79346 24.7257 0.542236 23.1352 0.542236Z" fill="#878787"/>
</svg>
