<svg width="25" height="25" viewBox="0 0 25 25" fill="none" xmlns="http://www.w3.org/2000/svg">
<path d="M24.4165 10.2696H23.4421V10.2194H12.5558V15.0574H19.3918C18.3945 17.8738 15.7146 19.8955 12.5558 19.8955C8.54779 19.8955 5.29822 16.6461 5.29822 12.6384C5.29822 8.63066 8.54779 5.38129 12.5558 5.38129C14.4059 5.38129 16.089 6.07918 17.3706 7.21915L20.7919 3.79803C18.6316 1.78478 15.7419 0.543213 12.5558 0.543213C5.8758 0.543213 0.459839 5.95883 0.459839 12.6384C0.459839 19.318 5.8758 24.7336 12.5558 24.7336C19.2358 24.7336 24.6517 19.318 24.6517 12.6384C24.6517 11.8274 24.5683 11.0358 24.4165 10.2696Z" fill="#878787"/>
<path d="M1.85449 7.00866L5.82861 9.92297C6.90393 7.26084 9.50819 5.38126 12.5558 5.38126C14.4058 5.38126 16.089 6.07915 17.3705 7.21911L20.7919 3.79801C18.6315 1.78478 15.7418 0.543213 12.5558 0.543213C7.90971 0.543213 3.88056 3.16604 1.85449 7.00866Z" fill="#878787"/>
<path d="M12.5558 24.7336C15.6801 24.7336 18.519 23.538 20.6655 21.5937L16.9218 18.4259C15.6665 19.3805 14.1327 19.8968 12.5558 19.8955C9.4096 19.8955 6.73822 17.8895 5.73184 15.0901L1.78735 18.129C3.78923 22.046 7.85467 24.7336 12.5558 24.7336Z" fill="#878787"/>
<path d="M24.4163 10.2694H23.442V10.2192H12.5557V15.0573H19.3917C18.9146 16.3977 18.0553 17.569 16.9199 18.4264L16.9217 18.4252L20.6654 21.5929C20.4005 21.8336 24.6516 18.6859 24.6516 12.6383C24.6516 11.8273 24.5681 11.0357 24.4163 10.2694Z" fill="#878787"/>
</svg>
