<svg width="26" height="25" viewBox="0 0 26 25" fill="none" xmlns="http://www.w3.org/2000/svg">
<path d="M16.4322 12.4961C16.4322 14.5722 14.7478 16.2567 12.6716 16.2567C10.5955 16.2567 8.91106 14.5722 8.91106 12.4961C8.91106 10.4199 10.5955 8.73551 12.6716 8.73551C14.7478 8.73551 16.4322 10.4278 16.4322 12.4961ZM12.6716 0C5.77725 0 0.167725 5.60953 0.167725 12.5039C0.167725 19.3983 5.77725 25 12.6716 25C15.1944 25 17.6309 24.2479 19.7149 22.822L19.7541 22.7985L18.0696 20.8399L18.0383 20.8555C16.4322 21.8819 14.5833 22.4303 12.6716 22.4303C7.1953 22.4303 2.73745 17.9724 2.73745 12.4961C2.73745 7.01974 7.1953 2.56189 12.6716 2.56189C18.148 2.56189 22.6058 7.01974 22.6058 12.4961C22.6058 13.209 22.5275 13.922 22.3708 14.6349C22.0574 15.9276 21.1564 16.3193 20.4748 16.2645C19.7932 16.2097 18.9941 15.7239 18.9863 14.5331V12.4961C18.9863 9.00971 16.1502 6.17361 12.6638 6.17361C9.17744 6.17361 6.34134 9.00971 6.34134 12.4961C6.34134 15.9825 9.17744 18.8186 12.6638 18.8186C14.3561 18.8186 15.9465 18.1526 17.1452 16.9539C17.8424 18.0351 18.9784 18.7167 20.2711 18.8186C20.3808 18.8264 20.4983 18.8342 20.608 18.8342C21.5168 18.8342 22.4178 18.5287 23.1464 17.9803C23.8985 17.4083 24.4548 16.5857 24.7603 15.5986C24.8073 15.4419 24.9013 15.0736 24.9013 15.0736V15.058C25.0815 14.2667 25.1677 13.4754 25.1677 12.4961C25.1756 5.60953 19.566 0 12.6716 0Z" fill="#878787"/>
</svg>
