<svg width="16" height="26" viewBox="0 0 16 26" fill="none" xmlns="http://www.w3.org/2000/svg">
<path d="M7.63654 0.542236C3.94705 0.542236 0.945686 3.43934 0.945686 7.0009C0.945686 10.5622 3.94705 13.458 7.63654 13.458C11.3259 13.458 14.3258 10.5622 14.3258 7.0009C14.3258 3.43934 11.3259 0.542236 7.63654 0.542236ZM7.63654 4.32641C9.16352 4.32641 10.4052 5.52676 10.4052 7.0009C10.4052 8.47442 9.16355 9.67384 7.63654 9.67384C6.10925 9.67384 4.86624 8.47444 4.86624 7.0009C4.86624 5.52676 6.10925 4.32641 7.63654 4.32641ZM2.12024 13.6777C1.45827 13.6678 0.807319 13.9828 0.429702 14.5638C-0.147377 15.4488 0.129071 16.6167 1.04372 17.1733C2.25356 17.9061 3.56638 18.426 4.92782 18.7256L1.18872 22.337C0.423274 23.0763 0.423922 24.2737 1.18952 25.013C1.57326 25.382 2.07374 25.5667 2.57549 25.5667C3.07673 25.5667 3.5789 25.3818 3.96146 25.0123L7.63496 21.4643L11.3117 25.0123C12.0765 25.7514 13.3167 25.7514 14.0828 25.0123C14.8486 24.2734 14.8486 23.0747 14.0828 22.337L10.3421 18.7264C11.7039 18.4268 13.0172 17.9066 14.2262 17.1734C15.1426 16.6167 15.4195 15.4475 14.8426 14.5638C14.2651 13.6785 13.0558 13.4119 12.1387 13.9694C9.39958 15.6328 5.87023 15.6317 3.13197 13.9694C2.81677 13.7778 2.46699 13.683 2.12024 13.6778V13.6777Z" fill="#878787"/>
</svg>
