<svg width="30" height="16" viewBox="0 0 30 16" fill="none" xmlns="http://www.w3.org/2000/svg">
<path fill-rule="evenodd" clip-rule="evenodd" d="M25.9223 11.0731C25.9223 11.0731 28.2694 13.1702 28.85 14.1406C28.8613 14.1546 28.8701 14.1702 28.8761 14.1866C29.1127 14.5451 29.1708 14.8261 29.0546 15.0336C28.8587 15.3763 28.1954 15.5484 27.9704 15.5628H23.8219C23.5331 15.5628 22.9322 15.4945 22.2006 15.0375C21.6418 14.6843 21.0858 14.1026 20.5473 13.534C19.7432 12.6896 19.0479 11.9569 18.3439 11.9569C18.255 11.9567 18.1667 11.97 18.0826 11.9963C17.5499 12.1486 16.8735 12.8354 16.8735 14.6646C16.8735 15.2371 16.3742 15.5628 16.0244 15.5628H14.1244C13.477 15.5628 10.1066 15.358 7.1179 12.5071C3.45573 9.01669 0.166594 2.0149 0.134661 1.95318C-0.070003 1.50014 0.359646 1.25326 0.82413 1.25326H5.0132C5.57494 1.25326 5.75783 1.56054 5.88556 1.83631C6.03362 2.15278 6.58229 3.41867 7.48223 4.84083C8.93955 7.15462 9.83514 8.09616 10.5507 8.09616C10.6852 8.09652 10.8173 8.06481 10.9339 8.00424C11.8687 7.53938 11.6945 4.5191 11.651 3.89666C11.651 3.77585 11.6495 2.54804 11.1705 1.95449C10.828 1.52903 10.2445 1.36357 9.89175 1.30316C9.98609 1.17973 10.1864 0.990632 10.4433 0.879013C11.0834 0.590117 12.2403 0.548096 13.3884 0.548096H14.0257C15.2711 0.563854 15.5933 0.636078 16.0462 0.739817C16.9577 0.936792 16.9751 1.47125 16.8953 3.29129C16.8721 3.81131 16.8474 4.39698 16.8474 5.08639C16.8474 5.23346 16.8401 5.39761 16.8401 5.56438C16.8126 6.49804 16.7763 7.54988 17.5049 7.98191C17.5995 8.03518 17.7086 8.06338 17.8199 8.06333C18.0725 8.06333 18.8287 8.06333 20.8797 4.87891C21.7797 3.47251 22.4764 1.81399 22.5243 1.68923C22.5649 1.61964 22.6869 1.42398 22.8349 1.34519C22.9402 1.29449 23.0582 1.26917 23.1775 1.27165H28.1054C28.6424 1.27165 29.0068 1.34519 29.0779 1.52903C29.1969 1.82712 29.0547 2.73714 26.8048 5.48953C26.426 5.94782 26.0936 6.3444 25.8018 6.69107C23.7624 9.11255 23.7624 9.23467 25.9223 11.0731Z" fill="#878787"/>
</svg>
