<svg class="icon-viber" width="23" height="23" viewBox="0 0 23 23" fill="none" xmlns="http://www.w3.org/2000/svg">
    <path d="M19.5677 2.95257C18.9917 2.4495 16.6604 0.845671 11.4628 0.824172C11.4628 0.824172 5.33531 0.475888 2.35096 3.07297C0.690972 4.64669 0.105894 6.95568 0.0423977 9.81505C-0.0210992 12.6744 -0.0982025 18.032 5.34892 19.4853H5.35345L5.34892 21.704C5.34892 21.704 5.31263 22.6026 5.93853 22.7832C6.69142 23.0068 7.1359 22.3232 7.85704 21.5879C8.25163 21.1837 8.79589 20.5903 9.20862 20.1389C12.9368 20.4355 15.7987 19.7562 16.1252 19.6573C16.8781 19.4251 21.1369 18.9091 21.8263 13.5516C22.5429 8.02203 21.4816 4.5306 19.5677 2.95257ZM20.1981 13.1474C19.613 17.6192 16.1615 17.903 15.5266 18.0965C15.2544 18.1782 12.7372 18.7715 9.57599 18.578C9.57599 18.578 7.21754 21.274 6.48279 21.9749C6.24241 22.2028 5.97935 22.1813 5.98389 21.7298C5.98389 21.4331 6.00203 18.0449 6.00203 18.0449C5.99749 18.0449 5.99749 18.0449 6.00203 18.0449C1.3849 16.8323 1.65703 12.2702 1.70692 9.88385C1.75681 7.49746 2.23304 5.54105 3.63904 4.22531C6.16531 2.05391 11.3675 2.3764 11.3675 2.3764C15.7624 2.3936 17.8669 3.64914 18.3567 4.07052C19.9759 5.38626 20.8013 8.53371 20.1981 13.1474ZM13.8938 9.67316C13.9119 10.0429 13.3268 10.0687 13.3087 9.69895C13.2588 8.753 12.7917 8.29292 11.8301 8.24132C11.4401 8.21982 11.4764 7.66515 11.8619 7.68665C13.1273 7.75115 13.8303 8.43911 13.8938 9.67316ZM14.8145 10.159C14.8598 8.33592 13.6579 6.90839 11.3766 6.74929C10.9911 6.72349 11.0319 6.16882 11.4174 6.19462C14.048 6.37521 15.4494 8.09083 15.3996 10.1719C15.395 10.5417 14.8054 10.5245 14.8145 10.159ZM16.9462 10.7352C16.9507 11.105 16.3611 11.1093 16.3611 10.7395C16.3339 7.23517 13.8711 5.32606 10.8822 5.30456C10.4967 5.30026 10.4967 4.74989 10.8822 4.74989C14.2249 4.77139 16.9144 6.95998 16.9462 10.7352ZM16.4336 14.9533V14.9619C15.9438 15.7789 15.0276 16.6818 14.0843 16.3937L14.0752 16.3808C13.1182 16.1272 10.8641 15.0264 9.43993 13.9515C8.70518 13.4011 8.03393 12.7518 7.51688 12.1283C7.04973 11.5737 6.57803 10.9158 6.11995 10.1246C5.15389 8.46921 4.94072 7.72965 4.94072 7.72965C4.63685 6.83529 5.58476 5.96673 6.45104 5.50235H6.46011C6.87738 5.29596 7.2765 5.36476 7.54409 5.67004C7.54409 5.67004 8.10649 6.30641 8.34687 6.6203C8.57365 6.91269 8.87753 7.38136 9.03627 7.64365C9.31293 8.11233 9.14058 8.58961 8.86845 8.7874L8.3242 9.20018C8.04753 9.41087 8.08382 9.80215 8.08382 9.80215C8.08382 9.80215 8.89113 12.6959 11.9072 13.4269C11.9072 13.4269 12.32 13.4613 12.5422 13.199L12.9776 12.683C13.1862 12.425 13.6897 12.2616 14.184 12.5239C14.8508 12.8808 15.6989 13.4355 16.2613 13.9386C16.5788 14.1836 16.6514 14.5577 16.4336 14.9533Z" fill="#CDCDCD"/>
</svg>
