<svg class="icon-whatsup" width="22" height="23" viewBox="0 0 22 23" fill="none" xmlns="http://www.w3.org/2000/svg">
<path d="M10.7015 0.807617C5.00231 0.807617 0.381678 5.6093 0.381678 11.533C0.381678 13.5593 0.922803 15.4544 1.86255 17.0712L0 22.8253L5.71363 20.9243C7.1921 21.7738 8.89248 22.2584 10.7015 22.2584C16.4015 22.2584 21.0219 17.456 21.0219 11.533C21.0219 5.6093 16.4015 0.807617 10.7015 0.807617ZM15.8332 15.6062C15.5904 16.2366 14.4924 16.8119 14.0079 16.8384C13.5239 16.8653 13.5102 17.2313 10.8715 16.0307C8.23325 14.8299 6.64596 11.9101 6.52081 11.722C6.39557 11.5347 5.49881 10.1962 5.54719 8.84915C5.59589 7.50189 6.30017 6.86628 6.55154 6.60192C6.80263 6.33716 7.09051 6.28974 7.26629 6.28674C7.47407 6.2832 7.60864 6.28025 7.76241 6.2862C7.91604 6.29229 8.14681 6.25253 8.34661 6.80907C8.54632 7.36556 9.02433 8.73331 9.08547 8.87269C9.14657 9.01222 9.18439 9.17377 9.09026 9.3529C8.99585 9.53244 8.94752 9.64459 8.81055 9.7993C8.67283 9.95402 8.52084 10.1454 8.39799 10.2637C8.26098 10.3947 8.11786 10.5375 8.26192 10.8175C8.40588 11.0973 8.90257 12.0145 9.65926 12.7704C10.6318 13.7421 11.4704 14.0644 11.7285 14.2113C11.9873 14.3589 12.1417 14.3425 12.3022 14.1656C12.4619 13.9887 12.9891 13.3917 13.1748 13.1252C13.3604 12.858 13.5343 12.9103 13.7727 13.0107C14.011 13.1116 15.2816 13.8244 15.5405 13.9716C15.799 14.1185 15.9718 14.1942 16.0336 14.3107C16.0954 14.4277 16.0759 14.9757 15.8332 15.6062Z" fill="#1BD741"/>
</svg>
