<svg width="157" height="34" viewBox="0 0 157 34" fill="none" xmlns="http://www.w3.org/2000/svg">
<path d="M12.2205 33.9997C8.82594 33.9997 5.7708 32.8215 3.56432 30.4651C1.1881 28.1087 0 25.2474 0 21.8811C0 18.5148 1.1881 15.6534 3.56432 13.297C5.94053 10.9406 8.82594 9.76245 12.2205 9.76245C14.427 9.76245 16.4638 10.2674 18.3308 11.4456C20.1978 12.4555 21.5557 13.9703 22.574 15.8218L17.4821 18.8514C16.973 17.8415 16.294 17.1683 15.4454 16.6633C14.427 16.1584 13.4086 15.8218 12.2205 15.8218C10.3535 15.8218 8.99566 16.3267 7.80756 17.5049C6.61945 18.6831 6.11026 20.1979 6.11026 22.0494C6.11026 23.9008 6.61945 25.4157 7.80756 26.4256C8.99566 27.6038 10.5232 28.1087 12.2205 28.1087C13.4086 28.1087 14.427 27.7721 15.4454 27.2671C16.4638 26.7622 17.1427 25.9206 17.4821 25.079L22.574 27.9404C21.5557 29.7918 20.1978 31.1384 18.3308 32.3165C16.6335 33.4947 14.5967 33.9997 12.2205 33.9997Z" fill="white"/>
<path d="M25.7988 33.326V-0.000244141H31.7394V33.326H25.7988Z" fill="white"/>
<path d="M40.2282 7.74166C39.2098 7.74166 38.3612 7.40503 37.6822 6.73177C36.8336 6.05852 36.4941 5.21695 36.4941 4.20706C36.4941 3.19718 36.8336 2.35561 37.5125 1.68235C38.1914 1.00909 39.0401 0.50415 40.0585 0.50415C41.0768 0.50415 41.9255 0.840779 42.6044 1.68235C43.2833 2.35561 43.6228 3.19718 43.6228 4.20706C43.6228 5.21695 43.453 6.05852 42.7741 6.73177C42.0952 7.40503 41.2466 7.74166 40.2282 7.74166ZM37.1731 33.3254V10.4347H43.1136V33.3254H37.1731Z" fill="white"/>
<path d="M59.5779 33.9997C56.1833 33.9997 53.1282 32.8215 50.9217 30.4651C48.5455 28.1087 47.3574 25.2474 47.3574 21.8811C47.3574 18.5148 48.5455 15.6534 50.9217 13.297C53.2979 10.9406 56.1833 9.76245 59.5779 9.76245C61.7844 9.76245 63.8212 10.2674 65.6882 11.4456C67.5552 12.4555 68.9131 13.9703 69.9314 15.8218L64.8395 18.8514C64.3304 17.8415 63.6514 17.1683 62.8028 16.6633C61.7844 16.1584 60.766 15.8218 59.5779 15.8218C57.7109 15.8218 56.3531 16.3267 55.165 17.5049C53.9769 18.6831 53.4677 20.1979 53.4677 22.0494C53.4677 23.9008 53.9769 25.4157 55.165 26.4256C56.3531 27.6038 57.8806 28.1087 59.5779 28.1087C60.766 28.1087 61.7844 27.7721 62.8028 27.2671C63.8212 26.7622 64.5001 25.9206 64.8395 25.079L69.9314 27.9404C68.9131 29.7918 67.5552 31.1384 65.6882 32.3165C63.8212 33.4947 61.7844 33.9997 59.5779 33.9997Z" fill="white"/>
<path d="M94.3715 33.3266H87.4126L79.0958 22.8911V33.3266H73.1553V1.34692H79.0958V20.5347L87.0731 10.4359H94.2018L84.8666 21.7129L94.3715 33.3266Z" fill="white"/>
<path d="M97.4258 33.326V-0.000244141H103.366V33.326H97.4258Z" fill="white"/>
<path d="M111.682 7.74166C110.663 7.74166 109.814 7.40503 109.136 6.73177C108.457 6.05852 108.117 5.21695 108.117 4.20706C108.117 3.19718 108.457 2.35561 109.136 1.68235C109.814 1.00909 110.663 0.50415 111.682 0.50415C112.7 0.50415 113.549 0.840779 114.227 1.68235C114.906 2.35561 115.246 3.19718 115.246 4.20706C115.246 5.21695 114.906 6.05852 114.227 6.73177C113.549 7.40503 112.7 7.74166 111.682 7.74166ZM108.796 33.3254V10.4347H114.737V33.3254H108.796Z" fill="white"/>
<path d="M132.561 6.39596C129.336 6.22764 127.639 7.40584 127.639 10.2672V10.4355H132.561V16.1582H127.639V33.3262H121.698V16.1582H118.304V10.4355H121.698V10.2672C121.698 7.06921 122.547 4.5445 124.414 2.86136C126.281 1.17822 128.997 0.504961 132.561 0.673275V6.39596Z" fill="white"/>
<path d="M139.517 24.4057C140.366 27.267 142.403 28.7819 145.967 28.7819C148.174 28.7819 150.041 27.9403 151.059 26.4255L155.811 29.1185C153.605 32.3164 150.21 33.9996 145.797 33.9996C142.063 33.9996 139.008 32.8214 136.632 30.6333C134.256 28.2769 133.237 25.4156 133.237 22.0493C133.237 18.683 134.425 15.6533 136.632 13.4653C138.838 11.1089 141.894 9.93066 145.458 9.93066C148.852 9.93066 151.568 11.1089 153.775 13.4653C155.981 15.8217 156.999 18.683 156.999 22.0493C156.999 22.8909 156.999 23.5641 156.83 24.4057H139.517V24.4057ZM139.348 19.8612H151.059C150.719 18.3464 150.041 17.1682 149.022 16.3266C148.004 15.485 146.816 15.1484 145.458 15.1484C143.93 15.1484 142.572 15.485 141.554 16.3266C140.536 17.1682 139.687 18.3464 139.348 19.8612Z" fill="white"/>
</svg>
