<svg width="48" height="67" viewBox="0 0 48 67" fill="none" xmlns="http://www.w3.org/2000/svg">
<path fill-rule="evenodd" clip-rule="evenodd" d="M19.0466 10.421C20.234 8.95957 22.5988 9.79919 22.5988 11.6822V53.1777C22.5988 54.0061 23.2704 54.6777 24.0988 54.6777C24.9272 54.6777 25.5988 54.0061 25.5988 53.1777V11.6825C25.5988 9.79953 27.9636 8.95992 29.151 10.4213L37.9675 21.2724C38.4899 21.9153 39.4346 22.013 40.0776 21.4906C40.7205 20.9682 40.8182 20.0235 40.2958 19.3806L25.8631 1.61723C25.4833 1.14981 24.9132 0.878418 24.3109 0.878418H23.8864C23.2842 0.878418 22.714 1.14981 22.3342 1.61723L7.90148 19.3806C7.37908 20.0235 7.47681 20.9682 8.11977 21.4906C8.76272 22.013 9.70742 21.9153 10.2298 21.2724L19.0466 10.421ZM0.0634766 64.5774C0.0634766 65.4058 0.735052 66.0774 1.56348 66.0774H46.5002C47.3286 66.0774 48.0002 65.4058 48.0002 64.5774C48.0002 63.749 47.3286 63.0774 46.5002 63.0774H1.56348C0.735049 63.0774 0.0634766 63.749 0.0634766 64.5774Z" fill="#878787"/>
</svg>
