<svg width="51" height="51" viewBox="0 0 51 51" fill="none" xmlns="http://www.w3.org/2000/svg">
<path d="M25.5 0C11.4168 0 0 11.4167 0 25.5C0 39.5833 11.4168 51 25.5 51C39.5832 51 51 39.5832 51 25.5C51 11.4168 39.5833 0 25.5 0ZM38.878 12.122C45.6076 18.8515 46.0756 29.1371 41.0041 36.3508L14.6491 9.996C21.8677 4.92109 32.1522 5.39623 38.878 12.122ZM12.122 38.878C5.39243 32.1485 4.92438 21.8629 9.9959 14.6492L36.3509 41.004C29.1324 46.0789 18.8478 45.6039 12.122 38.878V38.878Z" fill="#EB5757"/>
</svg>
