<svg width="51" height="51" viewBox="0 0 51 51" fill="none" xmlns="http://www.w3.org/2000/svg">
    <path d="M7.40074 8.23061C12.2942 3.33713 18.1932 0.890391 25.0977 0.890391C32.0022 0.890391 37.8677 3.33713 42.6941 8.23061C47.5876 13.0571 50.0343 18.9225 50.0343 25.827C50.0343 32.7315 47.5876 38.6305 42.6941 43.524C37.8677 48.3504 32.0022 50.7637 25.0977 50.7637C18.1932 50.7637 12.2942 48.3504 7.40074 43.524C2.5743 38.6305 0.161072 32.7315 0.161072 25.827C0.161072 18.9225 2.5743 13.0571 7.40074 8.23061ZM39.2754 11.6493C35.3874 7.69434 30.6615 5.71684 25.0977 5.71684C19.5339 5.71684 14.7745 7.69434 10.8195 11.6493C6.9315 15.5373 4.98752 20.2632 4.98752 25.827C4.98752 31.3908 6.9315 36.1503 10.8195 40.1053C14.7745 43.9932 19.5339 45.9372 25.0977 45.9372C30.6615 45.9372 35.3874 43.9932 39.2754 40.1053C43.2304 36.1503 45.2079 31.3908 45.2079 25.827C45.2079 20.2632 43.2304 15.5373 39.2754 11.6493ZM39.1748 18.7885C39.7781 19.3918 39.7781 19.9616 39.1748 20.4978L21.8801 37.692C21.2768 38.2953 20.707 38.2953 20.1707 37.692L11.0206 28.5419C10.4173 27.9386 10.4173 27.3688 11.0206 26.8325L13.3332 24.5199C13.8695 23.9836 14.4393 23.9836 15.0426 24.5199L20.9751 30.6535L35.2534 16.4758C35.7896 15.9395 36.3594 15.973 36.9627 16.5763L39.1748 18.7885Z" fill="#0EAA7E"/>
</svg>
