<svg width="59" height="61" viewBox="0 0 59 61" fill="none" xmlns="http://www.w3.org/2000/svg">
<path d="M52.346 30.8108L45.9271 20.5624C45.4297 19.7681 44.5861 19.2938 43.6708 19.2938H15.35C14.4361 19.2938 13.5934 19.7669 13.0957 20.5592L6.65688 30.8089C5.99889 31.8561 6.10053 33.2389 6.90406 34.1713L27.4921 58.0685C28.0016 58.6599 28.7331 58.9992 29.4992 58.9992C29.4993 58.9992 29.4992 58.9992 29.4993 58.9992C30.2653 58.9992 30.997 58.66 31.5066 58.0686L52.0969 34.17C52.8993 33.2386 53.0017 31.8573 52.346 30.8108ZM42.3705 21.6765L36.9723 30.3071L31.5708 21.6765H42.3705ZM34.8544 31.3093H24.144L29.4992 22.7527L34.8544 31.3093ZM27.4276 21.6768L22.041 30.2836L16.6562 21.6768H27.4276ZM14.5254 22.6579L19.938 31.3093H9.09063L14.5254 22.6579ZM9.57738 33.6921H21.1751L27.3075 54.2718L9.57738 33.6921ZM29.4992 53.5341L23.5867 33.6921H35.4118L29.4992 53.5341ZM31.6909 54.2726L37.8234 33.6922H49.4222L31.6909 54.2726ZM39.0902 31.3093L44.4978 22.6638L49.9125 31.3093H39.0902Z" fill="black"/>
<path d="M3.4954 31.3093H1.15234C0.51602 31.3093 0 31.8427 0 32.5007C0 33.1587 0.51602 33.6921 1.15234 33.6921H3.4954C4.13173 33.6921 4.64775 33.1587 4.64775 32.5007C4.64775 31.8427 4.13173 31.3093 3.4954 31.3093Z" fill="black"/>
<path d="M57.847 31.3093H55.5039C54.8676 31.3093 54.3516 31.8427 54.3516 32.5007C54.3516 33.1587 54.8676 33.6921 55.5039 33.6921H57.847C58.4833 33.6921 58.9993 33.1587 58.9993 32.5007C58.9993 31.8427 58.4833 31.3093 57.847 31.3093Z" fill="black"/>
<path d="M50.3751 10.9402C49.925 10.475 49.1955 10.475 48.7453 10.9402L44.9176 14.8977C44.4676 15.363 44.4676 16.1174 44.9176 16.5826C45.1427 16.8153 45.4376 16.9316 45.7325 16.9316C46.0275 16.9316 46.3223 16.8152 46.5473 16.5826L50.3751 12.6251C50.8251 12.1599 50.8251 11.4056 50.3751 10.9402Z" fill="black"/>
<path d="M14.1328 14.8765L10.3051 10.9189C9.85527 10.4536 9.12583 10.4536 8.67538 10.9189C8.22539 11.3841 8.22539 12.1385 8.67538 12.6038L12.5031 16.5613C12.7282 16.7939 13.0231 16.9102 13.3179 16.9102C13.6128 16.9102 13.9077 16.7938 14.1328 16.5613C14.5828 16.0961 14.5828 15.3416 14.1328 14.8765Z" fill="black"/>
<path d="M29.5293 2.00073C28.893 2.00073 28.377 2.53412 28.377 3.19214V10.9563C28.377 11.6143 28.8929 12.1477 29.5293 12.1477C30.1656 12.1477 30.6816 11.6143 30.6816 10.9563V3.19214C30.6816 2.53424 30.1656 2.00073 29.5293 2.00073Z" fill="black"/>
<path d="M30.3439 14.1444C30.1297 13.9228 29.8324 13.7953 29.5293 13.7953C29.2262 13.7953 28.9289 13.9228 28.7146 14.1444C28.5003 14.366 28.377 14.6734 28.377 14.9867C28.377 15.3012 28.5001 15.6074 28.7146 15.829C28.9289 16.0518 29.2262 16.1781 29.5293 16.1781C29.8324 16.1781 30.1297 16.0518 30.3439 15.829C30.5594 15.6074 30.6816 15.3 30.6816 14.9867C30.6816 14.6734 30.5594 14.3661 30.3439 14.1444Z" fill="black"/>
</svg>
