<svg width="55" height="34" viewBox="0 0 55 34" fill="none" xmlns="http://www.w3.org/2000/svg">
<path d="M2 32.1814C2 29.1905 4.42462 26.7659 7.41553 26.7659H10.6905C13.6815 26.7659 16.1063 29.1906 16.1063 32.1817C16.1063 32.187 16.102 32.1914 16.0966 32.1914H2.00997C2.00446 32.1914 2 32.1869 2 32.1814Z" fill="black" stroke="black" stroke-width="2.5" stroke-linecap="round" stroke-linejoin="round"/>
<circle cx="8.51032" cy="22.4255" r="4.3404" fill="black" stroke="black" stroke-width="2.5" stroke-linecap="round" stroke-linejoin="round"/>
<path d="M38.8926 32.1814C38.8926 29.1905 41.3172 26.7659 44.3081 26.7659H47.583C50.5741 26.7659 52.9989 29.1906 52.9989 32.1817C52.9989 32.187 52.9946 32.1914 52.9892 32.1914H38.9025C38.897 32.1914 38.8926 32.1869 38.8926 32.1814Z" fill="black" stroke="black" stroke-width="2.5" stroke-linecap="round" stroke-linejoin="round"/>
<circle cx="45.4049" cy="22.4255" r="4.3404" fill="black" stroke="black" stroke-width="2.5" stroke-linecap="round" stroke-linejoin="round"/>
<path d="M12.8516 32.1695C12.8516 25.5895 18.1857 20.2554 24.7657 20.2554H30.2345C36.8148 20.2554 42.1493 25.5898 42.1493 32.1702C42.1493 32.1819 42.1397 32.1915 42.128 32.1915H12.8735C12.8614 32.1915 12.8516 32.1817 12.8516 32.1695Z" fill="white" stroke="black" stroke-width="2.5" stroke-linecap="round" stroke-linejoin="round"/>
<circle cx="27.5007" cy="11.0319" r="9.22335" stroke="black" stroke-width="2.5" stroke-linecap="round" stroke-linejoin="round"/>
</svg>
