<svg width="59" height="73" viewBox="0 0 59 73" fill="none" xmlns="http://www.w3.org/2000/svg">
<path d="M21.3603 20.7482L21.1978 19.5089L21.3603 20.7482ZM18.3352 31.813L19.5641 32.0418L18.3352 31.813ZM18.0386 30.9029L17.1805 31.8118L18.0386 30.9029ZM17.9074 43.0061L18.5012 44.1061L17.9074 43.0061ZM16.4493 41.9431L15.2204 41.7144L16.4493 41.9431ZM27.975 38.0842L28.5688 36.9843L27.975 38.0842ZM27.025 38.0842L26.4312 36.9843L27.025 38.0842ZM38.5507 41.9431L37.3218 42.1719L38.5507 41.9431ZM37.0926 43.0061L36.4988 44.1061L37.0926 43.0061ZM36.9614 30.9029L37.8195 31.8118L36.9614 30.9029ZM36.6648 31.813L35.4359 32.0418L36.6648 31.813ZM44.4696 23.8138L43.6114 22.9049L44.4696 23.8138ZM32.8681 20.1893L31.7411 20.73L32.8681 20.1893ZM33.6397 20.7482L33.8022 19.5089L33.6397 20.7482ZM27.2746 11.42L31.7411 20.73L33.9951 19.6486L29.5286 10.3386L27.2746 11.42ZM33.4772 21.9876L43.7505 23.3346L44.0755 20.8558L33.8022 19.5089L33.4772 21.9876ZM43.6114 22.9049L36.1032 29.994L37.8195 31.8118L45.3277 24.7227L43.6114 22.9049ZM35.4359 32.0418L37.3218 42.1719L39.7796 41.7144L37.8937 31.5842L35.4359 32.0418ZM37.6864 41.9062L28.5688 36.9843L27.3812 39.1842L36.4988 44.1061L37.6864 41.9062ZM26.4312 36.9843L17.3136 41.9062L18.5012 44.1061L27.6188 39.1842L26.4312 36.9843ZM17.6782 42.1719L19.5641 32.0418L17.1063 31.5842L15.2204 41.7144L17.6782 42.1719ZM18.8968 29.994L11.3886 22.9049L9.67229 24.7227L17.1805 31.8118L18.8968 29.994ZM11.2495 23.3346L21.5228 21.9876L21.1978 19.5089L10.9245 20.8558L11.2495 23.3346ZM23.2589 20.73L27.7254 11.42L25.4714 10.3386L21.0049 19.6486L23.2589 20.73ZM21.5228 21.9876C22.2768 21.8888 22.9299 21.4157 23.2589 20.73L21.0049 19.6486C21.0414 19.5724 21.114 19.5198 21.1978 19.5089L21.5228 21.9876ZM11.3886 22.9049C11.5418 23.0496 11.4583 23.3072 11.2495 23.3346L10.9245 20.8558C9.04449 21.1023 8.29364 23.421 9.67229 24.7227L11.3886 22.9049ZM19.5641 32.0418C19.7041 31.2901 19.4527 30.5189 18.8968 29.994L17.1805 31.8118C17.1187 31.7534 17.0908 31.6677 17.1063 31.5842L19.5641 32.0418ZM17.3136 41.9062C17.4986 41.8064 17.7166 41.9654 17.6782 42.1719L15.2204 41.7144C14.8743 43.5736 16.8371 45.0045 18.5012 44.1061L17.3136 41.9062ZM28.5688 36.9843C27.9018 36.6242 27.0982 36.6242 26.4312 36.9843L27.6188 39.1842C27.5446 39.2242 27.4554 39.2242 27.3812 39.1842L28.5688 36.9843ZM37.3218 42.1719C37.2834 41.9653 37.5015 41.8064 37.6864 41.9062L36.4988 44.1061C38.1629 45.0045 40.1257 43.5736 39.7796 41.7144L37.3218 42.1719ZM36.1032 29.994C35.5473 30.5189 35.2959 31.2901 35.4359 32.0418L37.8937 31.5842C37.9092 31.6677 37.8813 31.7534 37.8195 31.8118L36.1032 29.994ZM43.7505 23.3346C43.5417 23.3072 43.4582 23.0496 43.6114 22.9049L45.3277 24.7227C46.7064 23.421 45.9555 21.1023 44.0755 20.8558L43.7505 23.3346ZM31.7411 20.73C32.0701 21.4157 32.7232 21.8888 33.4772 21.9876L33.8022 19.5089C33.886 19.5198 33.9586 19.5724 33.9951 19.6486L31.7411 20.73ZM29.5286 10.3386C28.7119 8.63628 26.2881 8.63628 25.4714 10.3386L27.7254 11.42C27.6347 11.6092 27.3653 11.6092 27.2746 11.42L29.5286 10.3386Z" fill="black"/>
<path d="M51.0621 34.5345C51.3843 33.6639 52.6157 33.6639 52.9379 34.5345L53.7311 36.6781C53.8323 36.9518 54.0482 37.1677 54.3219 37.2689L56.4655 38.0621C57.3361 38.3843 57.3361 39.6157 56.4655 39.9379L54.3219 40.7311C54.0482 40.8323 53.8323 41.0482 53.7311 41.3219L52.9379 43.4655C52.6157 44.3361 51.3843 44.3361 51.0621 43.4655L50.2689 41.3219C50.1677 41.0482 49.9518 40.8323 49.6781 40.7311L47.5345 39.9379C46.6639 39.6157 46.6639 38.3843 47.5345 38.0621L49.6781 37.2689C49.9518 37.1677 50.1677 36.9518 50.2689 36.6781L51.0621 34.5345Z" stroke="black" stroke-width="2.5" stroke-linecap="round"/>
<path d="M6.06215 2.5345C6.38431 1.66389 7.61569 1.66389 7.93785 2.53451L8.73106 4.67812C8.83235 4.95184 9.04816 5.16765 9.32188 5.26894L11.4655 6.06215C12.3361 6.38431 12.3361 7.61569 11.4655 7.93785L9.32188 8.73106C9.04816 8.83235 8.83235 9.04816 8.73106 9.32188L7.93785 11.4655C7.61569 12.3361 6.38431 12.3361 6.06215 11.4655L5.26894 9.32188C5.16765 9.04816 4.95184 8.83235 4.67812 8.73106L2.5345 7.93785C1.66389 7.61569 1.66389 6.38431 2.53451 6.06215L4.67812 5.26894C4.95184 5.16765 5.16765 4.95184 5.26894 4.67812L6.06215 2.5345Z" stroke="black" stroke-width="2.5" stroke-linecap="round"/>
<path d="M26.75 50.5C26.75 49.8096 26.1904 49.25 25.5 49.25C24.8096 49.25 24.25 49.8096 24.25 50.5H26.75ZM24.25 71C24.25 71.6904 24.8096 72.25 25.5 72.25C26.1904 72.25 26.75 71.6904 26.75 71H24.25ZM31.75 47C31.75 46.3096 31.1904 45.75 30.5 45.75C29.8096 45.75 29.25 46.3096 29.25 47H31.75ZM29.25 57.5C29.25 58.1904 29.8096 58.75 30.5 58.75C31.1904 58.75 31.75 58.1904 31.75 57.5H29.25ZM24.25 50.5V71H26.75V50.5H24.25ZM29.25 47V57.5H31.75V47H29.25Z" fill="black"/>
</svg>
