<svg width="37" height="44" viewBox="0 0 37 44" fill="none" xmlns="http://www.w3.org/2000/svg">
<path d="M36.3747 19.4983C36.3747 17.1733 34.6485 16.4152 33.566 16.4152C32.4835 16.4152 31.3167 16.4147 30.7685 16.4152H19.8651L21.2065 6.51288C21.2701 4.97496 20.7927 3.51472 19.8651 2.40142C19.4099 1.85268 18.8608 1.41608 18.2515 1.11861C17.6423 0.821135 16.986 0.669105 16.3232 0.671913C13.9588 0.671913 11.8673 2.48427 11.2398 5.07853L7.33405 21.1826H7.32041V43.3451H27.816C28.2343 43.3451 28.6435 43.2519 29.0209 43.0655C34.2766 40.5129 36.3747 24.8154 36.3747 19.4983ZM0 22.8396V41.6881C0 42.6046 0.650198 43.3451 1.45499 43.3451H4.41043V21.1826H1.45499C0.650198 21.1826 0 21.9231 0 22.8396Z" fill="#CDCDCD"/>
</svg>
