<svg width="23" height="22" viewBox="0 0 23 22" fill="none" xmlns="http://www.w3.org/2000/svg">
<path d="M20.1951 0H3.06613C1.72029 0 0.619141 1.05085 0.619141 2.33522V18.6817C0.619141 19.9673 1.72029 21.017 3.06613 21.017H11.6306V12.8437H9.18362V9.95387H11.6306V7.56027C11.6306 5.03356 13.1135 3.2588 16.2383 3.2588L18.4443 3.26113V6.30275H16.9797C15.7636 6.30275 15.3011 7.17379 15.3011 7.98178V9.95504H18.443L17.7481 12.8437H15.3011V21.017H20.1951C21.5409 21.017 22.6421 19.9673 22.6421 18.6817V2.33522C22.6421 1.05085 21.5409 0 20.1951 0Z" fill="#3A559F"/>
</svg>
