<svg width="15" height="25" viewBox="0 0 15 25" fill="none" xmlns="http://www.w3.org/2000/svg">
<path d="M7.50055 0C3.8149 0 0.816661 2.89427 0.816661 6.45235C0.816661 10.0101 3.8149 12.9031 7.50055 12.9031C11.1861 12.9031 14.1828 10.0101 14.1828 6.45235C14.1828 2.89427 11.1861 0 7.50055 0ZM7.50055 3.78047C9.02594 3.78047 10.2664 4.97965 10.2664 6.45235C10.2664 7.92443 9.02597 9.12268 7.50055 9.12268C5.97485 9.12268 4.73313 7.92445 4.73313 6.45235C4.73313 4.97965 5.97485 3.78047 7.50055 3.78047ZM1.99 13.1227C1.32872 13.1127 0.678439 13.4274 0.301215 14.0078C-0.275264 14.892 0.000896112 16.0587 0.914592 16.6148C2.12317 17.3469 3.43462 17.8663 4.79465 18.1656L1.05944 21.7734C0.294793 22.512 0.295441 23.7083 1.06025 24.4469C1.44358 24.8155 1.94354 25 2.44477 25C2.94549 25 3.44713 24.8152 3.8293 24.4461L7.49897 20.9016L11.1719 24.4461C11.9359 25.1845 13.1748 25.1845 13.9401 24.4461C14.7051 23.708 14.7051 22.5105 13.9401 21.7735L10.2033 18.1664C11.5637 17.8671 12.8756 17.3474 14.0833 16.6149C14.9988 16.0587 15.2754 14.8907 14.6991 14.0078C14.1222 13.1235 12.9142 12.857 11.998 13.4141C9.26176 15.0758 5.73608 15.0747 3.00067 13.4141C2.68579 13.2226 2.33638 13.1279 1.99 13.1227V13.1227Z" fill="#FF7D02"/>
</svg>
