<svg width="23" height="23" viewBox="0 0 23 23" fill="none" xmlns="http://www.w3.org/2000/svg">
<path d="M20.3753 2.50335C19.7993 2.00028 17.468 0.396452 12.2704 0.374953C12.2704 0.374953 6.14293 0.0266691 3.15858 2.62375C1.49859 4.19747 0.913512 6.50646 0.850015 9.36583C0.786518 12.2252 0.709415 17.5827 6.15653 19.0361H6.16107L6.15653 21.2548C6.15653 21.2548 6.12025 22.1534 6.74615 22.334C7.49904 22.5576 7.94352 21.8739 8.66466 21.1387C9.05925 20.7345 9.60351 20.1411 10.0162 19.6896C13.7444 19.9863 16.6063 19.307 16.9329 19.2081C17.6857 18.9759 21.9446 18.4599 22.634 13.1024C23.3506 7.57281 22.2893 4.08138 20.3753 2.50335ZM21.0057 12.6982C20.4206 17.17 16.9691 17.4538 16.3342 17.6472C16.062 17.7289 13.5448 18.3223 10.3836 18.1288C10.3836 18.1288 8.02516 20.8248 7.29041 21.5257C7.05003 21.7535 6.78697 21.732 6.7915 21.2806C6.7915 20.9839 6.80964 17.5956 6.80964 17.5956C6.80511 17.5956 6.80511 17.5956 6.80964 17.5956C2.19252 16.3831 2.46465 11.821 2.51454 9.43463C2.56443 7.04824 3.04066 5.09183 4.44666 3.77609C6.97292 1.60469 12.1751 1.92718 12.1751 1.92718C16.57 1.94438 18.6745 3.19992 19.1643 3.6213C20.7835 4.93704 21.6089 8.08449 21.0057 12.6982ZM14.7014 9.22394C14.7195 9.59372 14.1345 9.61952 14.1163 9.24974C14.0664 8.30378 13.5993 7.8437 12.6377 7.7921C12.2477 7.77061 12.284 7.21593 12.6695 7.23743C13.9349 7.30193 14.6379 7.98989 14.7014 9.22394ZM15.6221 9.70981C15.6675 7.8867 14.4655 6.45917 12.1842 6.30007C11.7987 6.27428 11.8395 5.7196 12.225 5.7454C14.8556 5.92599 16.2571 7.64161 16.2072 9.72271C16.2026 10.0925 15.613 10.0753 15.6221 9.70981ZM17.7538 10.286C17.7583 10.6558 17.1687 10.6601 17.1687 10.2903C17.1415 6.78595 14.6787 4.87684 11.6898 4.85534C11.3043 4.85104 11.3043 4.30067 11.6898 4.30067C15.0325 4.32217 17.722 6.51076 17.7538 10.286ZM17.2413 14.5041V14.5127C16.7514 15.3296 15.8353 16.2326 14.8919 15.9445L14.8828 15.9316C13.9258 15.6779 11.6717 14.5772 10.2475 13.5022C9.51279 12.9519 8.84154 12.3026 8.3245 11.6791C7.85734 11.1244 7.38565 10.4666 6.92757 9.67542C5.96151 8.01999 5.74834 7.28043 5.74834 7.28043C5.44446 6.38607 6.39238 5.51751 7.25866 5.05313H7.26773C7.68499 4.84674 8.08412 4.91554 8.35171 5.22082C8.35171 5.22082 8.91411 5.85719 9.15449 6.17108C9.38127 6.46347 9.68514 6.93214 9.84389 7.19443C10.1206 7.66311 9.9482 8.14039 9.67607 8.33818L9.13181 8.75096C8.85515 8.96165 8.89143 9.35293 8.89143 9.35293C8.89143 9.35293 9.69875 12.2467 12.7148 12.9777C12.7148 12.9777 13.1276 13.0121 13.3498 12.7498L13.7852 12.2338C13.9939 11.9758 14.4973 11.8124 14.9917 12.0747C15.6584 12.4316 16.5065 12.9863 17.0689 13.4893C17.3864 13.7344 17.459 14.1085 17.2413 14.5041Z" fill="#7D3DAF"/>
</svg>
