<svg width="25" height="14" viewBox="0 0 25 14" fill="none" xmlns="http://www.w3.org/2000/svg">
<path fill-rule="evenodd" clip-rule="evenodd" d="M22.0392 9.12396C22.0392 9.12396 23.9816 10.9411 24.4621 11.782C24.4714 11.7942 24.4787 11.8076 24.4837 11.8219C24.6795 12.1325 24.7276 12.376 24.6315 12.5558C24.4693 12.8528 23.9203 13.0018 23.7341 13.0143H20.3009C20.0619 13.0143 19.5646 12.9552 18.9591 12.5592C18.4967 12.2531 18.0366 11.749 17.5909 11.2563C16.9254 10.5247 16.35 9.88974 15.7674 9.88974C15.6938 9.8896 15.6207 9.90113 15.5512 9.92388C15.1103 10.0559 14.5505 10.651 14.5505 12.236C14.5505 12.7322 14.1373 13.0143 13.8478 13.0143H12.2754C11.7396 13.0143 8.95028 12.8368 6.47689 10.3665C3.44612 7.34205 0.724078 1.27491 0.69765 1.22143C0.528273 0.828864 0.883845 0.614944 1.26825 0.614944H4.73507C5.19996 0.614944 5.35131 0.881206 5.45702 1.12016C5.57955 1.39439 6.03363 2.4913 6.77841 3.72361C7.98447 5.72854 8.72564 6.5444 9.31786 6.5444C9.42912 6.54471 9.53851 6.51724 9.63499 6.46475C10.4086 6.06194 10.2644 3.44483 10.2284 2.90548C10.2284 2.8008 10.2272 1.73689 9.8308 1.22257C9.5473 0.853897 9.06439 0.710525 8.77249 0.658183C8.85057 0.551223 9.01635 0.387369 9.22897 0.29065C9.75872 0.040318 10.7161 0.00390625 11.6663 0.00390625H12.1937C13.2243 0.0175607 13.491 0.0801436 13.8658 0.170036C14.6202 0.340716 14.6346 0.803831 14.5685 2.38092C14.5493 2.83152 14.5289 3.33901 14.5289 3.93639C14.5289 4.06384 14.5229 4.20607 14.5229 4.35058C14.5001 5.15961 14.47 6.07104 15.0731 6.4454C15.1513 6.49156 15.2416 6.516 15.3337 6.51595C15.5428 6.51595 16.1686 6.51595 17.866 3.75661C18.6108 2.53795 19.1874 1.10082 19.227 0.992718C19.2607 0.93241 19.3616 0.762867 19.4841 0.694595C19.5712 0.650668 19.6689 0.628724 19.7676 0.630874H23.8458C24.2903 0.630874 24.5918 0.694595 24.6507 0.853897C24.7492 1.11219 24.6315 1.90074 22.7695 4.28572C22.456 4.68284 22.1809 5.02648 21.9395 5.32688C20.2517 7.42511 20.2517 7.53093 22.0392 9.12396Z" fill="#44678D"/>
</svg>
