<svg width="22" height="23" viewBox="0 0 22 23" fill="none" xmlns="http://www.w3.org/2000/svg">
<path d="M11.5082 0.359375C5.80895 0.359375 1.18832 5.16106 1.18832 11.0848C1.18832 13.1111 1.72944 15.0062 2.66919 16.623L0.806641 22.3771L6.52027 20.476C7.99874 21.3255 9.69912 21.8101 11.5082 21.8101C17.2081 21.8101 21.8285 17.0078 21.8285 11.0848C21.8285 5.16106 17.2081 0.359375 11.5082 0.359375ZM16.6398 15.1579C16.3971 15.7883 15.299 16.3637 14.8146 16.3902C14.3306 16.417 14.3168 16.783 11.6782 15.5825C9.03989 14.3816 7.4526 11.4618 7.32745 11.2738C7.20221 11.0864 6.30545 9.74792 6.35383 8.40091C6.40254 7.05365 7.10681 6.41804 7.35819 6.15367C7.60927 5.88892 7.89715 5.8415 8.07293 5.8385C8.28071 5.83496 8.41528 5.83201 8.56905 5.83796C8.72268 5.84405 8.95345 5.80429 9.15325 6.36083C9.35296 6.91732 9.83097 8.28507 9.89212 8.42445C9.95321 8.56398 9.99103 8.72552 9.8969 8.90466C9.80249 9.0842 9.75416 9.19635 9.61719 9.35106C9.47947 9.50578 9.32748 9.69715 9.20464 9.81545C9.06762 9.94643 8.9245 10.0893 9.06856 10.3693C9.21252 10.6491 9.70921 11.5663 10.4659 12.3222C11.4384 13.2939 12.2771 13.6162 12.5351 13.763C12.7939 13.9106 12.9484 13.8942 13.1088 13.7174C13.2686 13.5405 13.7958 12.9435 13.9814 12.677C14.167 12.4097 14.3409 12.462 14.5793 12.5625C14.8176 12.6634 16.0883 13.3762 16.3471 13.5234C16.6056 13.6703 16.7785 13.746 16.8403 13.8625C16.9021 13.9795 16.8825 14.5275 16.6398 15.1579Z" fill="#1BD741"/>
</svg>
