<svg width="23" height="21" viewBox="0 0 23 21" fill="none" xmlns="http://www.w3.org/2000/svg">
<path d="M20.0231 0H2.89425C1.54841 0 0.447266 1.05 0.447266 2.33333V18.6667C0.447266 19.9512 1.54841 21 2.89425 21H11.4587V12.8333H9.0117V9.94583H11.4587V7.55417C11.4587 5.0295 12.9415 3.25617 16.0663 3.25617L18.2723 3.2585V6.29767H16.8078C15.5916 6.29767 15.1292 7.168 15.1292 7.97533V9.947H18.2711L17.5761 12.8333H15.1292V21H20.0231C21.3689 21 22.4701 19.9512 22.4701 18.6667V2.33333C22.4701 1.05 21.3689 0 20.0231 0Z" fill="#C8C8C8"/>
</svg>
