<svg width="25" height="13" viewBox="0 0 25 13" fill="none" xmlns="http://www.w3.org/2000/svg">
<path fill-rule="evenodd" clip-rule="evenodd" d="M21.9049 9.11273C21.9049 9.11273 23.8474 10.9285 24.3279 11.7687C24.3372 11.7808 24.3445 11.7942 24.3495 11.8085C24.5453 12.1189 24.5933 12.3622 24.4972 12.5418C24.3351 12.8386 23.7861 12.9875 23.5999 13H20.1667C19.9277 13 19.4303 12.9409 18.8249 12.5452C18.3624 12.2394 17.9023 11.7357 17.4567 11.2434C16.7912 10.5123 16.2158 9.87791 15.6332 9.87791C15.5596 9.87776 15.4865 9.88929 15.4169 9.91202C14.9761 10.0439 14.4163 10.6385 14.4163 12.2223C14.4163 12.718 14.0031 13 13.7135 13H12.1411C11.6053 13 8.81602 12.8226 6.34263 10.3543C3.31185 7.33225 0.589801 1.26998 0.563373 1.21655C0.393996 0.824296 0.749568 0.610548 1.13397 0.610548H4.6008C5.06569 0.610548 5.21705 0.876596 5.32276 1.11536C5.44529 1.38936 5.89936 2.48539 6.64414 3.71672C7.85021 5.72005 8.59138 6.53525 9.1836 6.53525C9.29487 6.53555 9.40425 6.5081 9.50074 6.45566C10.2743 6.05317 10.1302 3.43817 10.0942 2.89925C10.0942 2.79465 10.093 1.73159 9.69654 1.21768C9.41304 0.849309 8.93014 0.706052 8.63823 0.653752C8.71631 0.546878 8.88209 0.383155 9.09471 0.286514C9.62447 0.0363826 10.5819 0 11.5321 0H12.0594C13.0901 0.0136435 13.3568 0.0761762 13.7316 0.165996C14.486 0.33654 14.5004 0.799283 14.4343 2.37511C14.4151 2.82535 14.3947 3.33243 14.3947 3.92933C14.3947 4.05667 14.3887 4.19879 14.3887 4.34319C14.3658 5.15157 14.3358 6.06227 14.9388 6.43633C15.017 6.48244 15.1074 6.50687 15.1995 6.50682C15.4085 6.50682 16.0344 6.50682 17.7318 3.74969C18.4765 2.53201 19.0531 1.09603 19.0928 0.988018C19.1264 0.927759 19.2273 0.758352 19.3499 0.690135C19.437 0.646242 19.5346 0.624317 19.6334 0.626465H23.7116C24.1561 0.626465 24.4576 0.690135 24.5165 0.849309C24.615 1.1074 24.4972 1.89531 22.6353 4.27838C22.3218 4.67518 22.0467 5.01854 21.8052 5.3187C20.1175 7.41525 20.1175 7.52099 21.9049 9.11273Z" fill="#C8C8C8"/>
</svg>
