<svg width="22" height="21" viewBox="0 0 22 21" fill="none" xmlns="http://www.w3.org/2000/svg">
<path d="M11 8.88454C9.17813 8.88454 7.7 10.435 7.7 12.3461C7.7 14.2571 9.17813 15.8076 11 15.8076C12.8219 15.8076 14.3 14.2571 14.3 12.3461C14.3 10.435 12.8219 8.88454 11 8.88454ZM19.0667 3.88454H16.5L15.9156 2.24993C15.6292 1.45666 14.7354 0.807617 13.9333 0.807617H8.06667C7.26458 0.807617 6.37083 1.45666 6.08437 2.24993L5.5 3.88454H2.93333C1.31771 3.88454 0 5.26675 0 6.96146V17.7307C0 19.4254 1.31771 20.8076 2.93333 20.8076H19.0667C20.6823 20.8076 22 19.4254 22 17.7307V6.96146C22 5.26675 20.6823 3.88454 19.0667 3.88454ZM11 17.7307C8.16979 17.7307 5.86667 15.3148 5.86667 12.3461C5.86667 9.37733 8.16979 6.96146 11 6.96146C13.8302 6.96146 16.1333 9.37733 16.1333 12.3461C16.1333 15.3148 13.8302 17.7307 11 17.7307Z" fill="white"/>
</svg>
