<svg width="23" height="22" viewBox="0 0 23 22" fill="none" xmlns="http://www.w3.org/2000/svg">
<path d="M12.8683 17.9767C12.8683 18.2029 12.6924 18.3914 12.4662 18.3914H10.0534C9.82717 18.3914 9.65123 18.2029 9.65123 17.9767V15.5891C9.65123 15.3628 9.82717 15.1743 10.0534 15.1743H12.4662C12.6924 15.1743 12.8683 15.3628 12.8683 15.5891V17.9767ZM12.8432 13.2768C12.8306 13.4401 12.6421 13.5658 12.4159 13.5658H10.0911C9.8523 13.5658 9.6638 13.4401 9.6638 13.2768L9.45016 7.53373C9.45016 7.45833 9.48786 7.33266 9.57583 7.26982C9.65123 7.20699 9.76433 7.13159 9.87743 7.13159H12.6421C12.7552 7.13159 12.8683 7.20699 12.9437 7.26982C13.0317 7.33266 13.0694 7.43319 13.0694 7.50859L12.8432 13.2768ZM12.6673 1.53936C12.3908 1.02412 11.8504 0.697383 11.2598 0.697383C10.6691 0.697383 10.1288 1.02412 9.8523 1.53936L0.200992 19.2334C-0.0754781 19.7235 -0.0629113 20.3267 0.226125 20.8168C0.515162 21.3069 1.04297 21.6086 1.60847 21.6086H20.9111C21.4766 21.6086 22.0044 21.3069 22.2934 20.8168C22.5825 20.3267 22.595 19.7235 22.3186 19.2334L12.6673 1.53936Z" fill="#F2994A"/>
</svg>
